<?xml version="1.0" standalone="yes"?>
<!DOCTYPE svg PUBLIC "-//W3C//DTD SVG 1.1//EN"
 "http://www.w3.org/Graphics/SVG/1.1/DTD/svg11.dtd">
<svg xmlns="http://www.w3.org/2000/svg" version="1.1"
  width="100%" height="100%" viewBox="0 0 1024 768"
  style="fill: none; font-family: Helvetica;
 font: Helvetica;
">

<!-- Creator: NGspice -->

<rect x="0" y="0" width="1024" height="768" fill="black" stroke="none"/>
<text stroke="none" fill="white" font-size="16" x="358" y="752">
time
</text>
<text stroke="none" fill="white" font-size="16" x="10" y="16">
tran1: ** sch_path: /home/wyatt/ee431/pwmtest.sch
</text>
<path stroke="white" d="M60 720l0 -672"/>
<text stroke="none" fill="white" font-size="16" x="45" y="728">
0.0
</text>
<path stroke="white" stroke-dasharray="1,2" d="M135 720l0 -672"/>
<text stroke="none" fill="white" font-size="16" x="120" y="728">
0.5
</text>
<path stroke="white" stroke-dasharray="1,2" d="M210 720l0 -672"/>
<text stroke="none" fill="white" font-size="16" x="195" y="728">
1.0
</text>
<path stroke="white" stroke-dasharray="1,2" d="M285 720l0 -672"/>
<text stroke="none" fill="white" font-size="16" x="270" y="728">
1.5
</text>
<path stroke="white" stroke-dasharray="1,2" d="M360 720l0 -672"/>
<text stroke="none" fill="white" font-size="16" x="345" y="728">
2.0
</text>
<path stroke="white" stroke-dasharray="1,2" d="M435 720l0 -672"/>
<text stroke="none" fill="white" font-size="16" x="420" y="728">
2.5
</text>
<path stroke="white" stroke-dasharray="1,2" d="M510 720l0 -672"/>
<text stroke="none" fill="white" font-size="16" x="495" y="728">
3.0
</text>
<path stroke="white" stroke-dasharray="1,2" d="M585 720l0 -672"/>
<text stroke="none" fill="white" font-size="16" x="570" y="728">
3.5
</text>
<path stroke="white" stroke-dasharray="1,2" d="M660 720l0 -672"/>
<text stroke="none" fill="white" font-size="16" x="645" y="728">
4.0
</text>
<path stroke="white" stroke-dasharray="1,2" d="M735 720l0 -672"/>
<text stroke="none" fill="white" font-size="16" x="720" y="728">
4.5
</text>
<path stroke="white" stroke-dasharray="1,2" d="M810 720l0 -672"/>
<text stroke="none" fill="white" font-size="16" x="795" y="728">
5.0
</text>
<path stroke="white" stroke-dasharray="1,2" d="M885 720l0 -672"/>
<text stroke="none" fill="white" font-size="16" x="870" y="728">
5.5
</text>
<path stroke="white" stroke-dasharray="1,2" d="M960 720l0 -672"/>
<text stroke="none" fill="white" font-size="16" x="945" y="728">
6.0
</text>
<text stroke="none" fill="white" font-size="16" x="614" y="752">
us
</text>
<path stroke="white" d="M60 720l900 0"/>
<text stroke="none" fill="white" font-size="16" x="28" y="728">
0.0
</text>
<path stroke="white" stroke-dasharray="1,2" d="M60 664l900 0"/>
<text stroke="none" fill="white" font-size="16" x="28" y="672">
1.0
</text>
<path stroke="white" stroke-dasharray="1,2" d="M60 608l900 0"/>
<text stroke="none" fill="white" font-size="16" x="28" y="616">
2.0
</text>
<path stroke="white" stroke-dasharray="1,2" d="M60 552l900 0"/>
<text stroke="none" fill="white" font-size="16" x="28" y="560">
3.0
</text>
<path stroke="white" stroke-dasharray="1,2" d="M60 496l900 0"/>
<text stroke="none" fill="white" font-size="16" x="28" y="504">
4.0
</text>
<path stroke="white" stroke-dasharray="1,2" d="M60 440l900 0"/>
<text stroke="none" fill="white" font-size="16" x="28" y="448">
5.0
</text>
<path stroke="white" stroke-dasharray="1,2" d="M60 384l900 0"/>
<text stroke="none" fill="white" font-size="16" x="28" y="392">
6.0
</text>
<path stroke="white" stroke-dasharray="1,2" d="M60 328l900 0"/>
<text stroke="none" fill="white" font-size="16" x="28" y="336">
7.0
</text>
<path stroke="white" stroke-dasharray="1,2" d="M60 272l900 0"/>
<text stroke="none" fill="white" font-size="16" x="28" y="280">
8.0
</text>
<path stroke="white" stroke-dasharray="1,2" d="M60 216l900 0"/>
<text stroke="none" fill="white" font-size="16" x="28" y="224">
9.0
</text>
<path stroke="white" stroke-dasharray="1,2" d="M60 160l900 0"/>
<text stroke="none" fill="white" font-size="16" x="18" y="168">
10.0
</text>
<path stroke="white" stroke-dasharray="1,2" d="M60 104l900 0"/>
<text stroke="none" fill="white" font-size="16" x="18" y="112">
11.0
</text>
<path stroke="white" stroke-dasharray="1,2" d="M60 48l900 0"/>
<text stroke="none" fill="white" font-size="16" x="18" y="56">
12.0
</text>
<text stroke="none" fill="white" font-size="16" x="10" y="32">
     
</text>
<path stroke="red" d="M450 23l45 0"/>
<text stroke="none" fill="white" font-size="16" x="505" y="32">
clk
</text>
<path stroke="red" d="M60 720l0 -101 2 0M62 720l0 -101M62 720l1 0 0 -101 2 0M65 720l0 -101M65 720l1 0 0 -101 2 0M68 720l0 -101M68 720l1 0 0 -101 2 0M71 720l0 -101M71 720l1 0 0 -101 2 0M74 720l0 -101M74 720l1 0 0 -101 2 0M77 720l0 -101M77 720l1 0"/>
<path stroke="red" d="M78 720l0 -101 2 0M80 720l0 -101M80 720l1 0 0 -101 2 0M83 720l0 -101M83 720l1 0 0 -101 2 0M86 720l0 -101M86 720l1 0 0 -101 2 0M89 720l0 -101M89 720l1 0 0 -101 2 0M92 720l0 -101M92 720l1 0 0 -101 2 0M95 720l0 -101M95 720l1 0"/>
<path stroke="red" d="M96 720l0 -101 2 0M98 720l0 -101M98 720l1 0 0 -101 2 0M101 720l0 -101M101 720l1 0 0 -101 2 0M104 720l0 -101M104 720l1 0 0 -101 2 0M107 720l0 -101M107 720l1 0 0 -101 2 0M110 720l0 -101M110 720l1 0 0 -101 2 0M113 720l0 -101"/>
<path stroke="red" d="M113 720l1 0 0 -101 2 0M116 720l0 -101M116 720l1 0 0 -101 2 0M119 720l0 -101M119 720l1 0 0 -101 2 0M122 720l0 -101M122 720l1 0 0 -101 2 0M125 720l0 -101M125 720l1 0 0 -101 2 0M128 720l0 -101M128 720l1 0 0 -101 2 0M131 720l0 -101"/>
<path stroke="red" d="M131 720l1 0 0 -101 2 0M134 720l0 -101M134 720l1 0 0 -101 2 0M137 720l0 -101M137 720l1 0 0 -101 2 0M140 720l0 -101M140 720l1 0 0 -101 2 0M143 720l0 -101M143 720l1 0 0 -101 2 0M146 720l0 -101M146 720l1 0 0 -101 2 0M149 720l0 -101"/>
<path stroke="red" d="M149 720l1 0 0 -101 2 0M152 720l0 -101M152 720l1 0 0 -101 2 0M155 720l0 -101M155 720l1 0 0 -101 2 0M158 720l0 -101M158 720l1 0 0 -101 2 0M161 720l0 -101M161 720l1 0 0 -101 2 0M164 720l0 -101M164 720l1 0 0 -101 2 0M167 720l0 -101"/>
<path stroke="red" d="M167 720l1 0 0 -101 2 0M170 720l0 -101M170 720l1 0 0 -101 2 0M173 720l0 -101M173 720l1 0 0 -101 2 0M176 720l0 -101M176 720l1 0 0 -101 2 0M179 720l0 -101M179 720l1 0 0 -101 2 0M182 720l0 -101M182 720l1 0 0 -101 2 0M185 720l0 -101"/>
<path stroke="red" d="M185 720l1 0 0 -101 2 0M188 720l0 -101M188 720l1 0 0 -101 2 0M191 720l0 -101M191 720l1 0 0 -101 2 0M194 720l0 -101M194 720l1 0 0 -101 2 0M197 720l0 -101M197 720l1 0 0 -101 2 0M200 720l0 -101M200 720l1 0 0 -101 2 0M203 720l0 -101"/>
<path stroke="red" d="M203 720l1 0 0 -101 2 0M206 720l0 -101M206 720l1 0 0 -101 2 0M209 720l0 -101M209 720l1 0 0 -101 2 0M212 720l0 -101M212 720l1 0 0 -101 2 0M215 720l0 -101M215 720l1 0 0 -101 2 0M218 720l0 -101M218 720l1 0 0 -101 2 0M221 720l0 -101"/>
<path stroke="red" d="M221 720l1 0 0 -101 2 0M224 720l0 -101M224 720l1 0 0 -101 2 0M227 720l0 -101M227 720l1 0 0 -101 2 0M230 720l0 -101M230 720l1 0 0 -101 2 0M233 720l0 -101M233 720l1 0 0 -101 2 0M236 720l0 -101M236 720l1 0 0 -101 2 0M239 720l0 -101"/>
<path stroke="red" d="M239 720l1 0 0 -101 2 0M242 720l0 -101M242 720l1 0 0 -101 2 0M245 720l0 -101M245 720l1 0 0 -101 2 0M248 720l0 -101M248 720l1 0 0 -101 2 0M251 720l0 -101M251 720l1 0 0 -101 2 0M254 720l0 -101M254 720l1 0 0 -101 2 0M257 720l0 -101"/>
<path stroke="red" d="M257 720l1 0 0 -101 2 0M260 720l0 -101M260 720l1 0 0 -101 2 0M263 720l0 -101M263 720l1 0 0 -101 2 0M266 720l0 -101M266 720l1 0 0 -101 2 0M269 720l0 -101M269 720l1 0 0 -101 2 0M272 720l0 -101M272 720l1 0 0 -101 2 0M275 720l0 -101"/>
<path stroke="red" d="M275 720l1 0 0 -101 2 0M278 720l0 -101M278 720l1 0 0 -101 2 0M281 720l0 -101M281 720l1 0 0 -101 2 0M284 720l0 -101M284 720l1 0 0 -101 2 0M287 720l0 -101M287 720l1 0 0 -101 2 0M290 720l0 -101M290 720l1 0 0 -101 2 0M293 720l0 -101"/>
<path stroke="red" d="M293 720l1 0 0 -101 2 0M296 720l0 -101M296 720l1 0 0 -101 2 0M299 720l0 -101M299 720l1 0 0 -101 2 0M302 720l0 -101M302 720l1 0 0 -101 2 0M305 720l0 -101M305 720l1 0 0 -101 2 0M308 720l0 -101M308 720l1 0 0 -101 2 0M311 720l0 -101"/>
<path stroke="red" d="M311 720l1 0 0 -101 2 0M314 720l0 -101M314 720l1 0 0 -101 2 0M317 720l0 -101M317 720l1 0 0 -101 2 0M320 720l0 -101M320 720l1 0 0 -101 2 0M323 720l0 -101M323 720l1 0 0 -101 2 0M326 720l0 -101M326 720l1 0 0 -101 2 0M329 720l0 -101"/>
<path stroke="red" d="M329 720l1 0 0 -101 2 0M332 720l0 -101M332 720l1 0 0 -101 2 0M335 720l0 -101M335 720l1 0 0 -101 2 0M338 720l0 -101M338 720l1 0 0 -101 2 0M341 720l0 -101M341 720l1 0 0 -101 2 0M344 720l0 -101M344 720l1 0 0 -101 2 0M347 720l0 -101"/>
<path stroke="red" d="M347 720l1 0 0 -101 2 0M350 720l0 -101M350 720l1 0 0 -101 2 0M353 720l0 -101M353 720l1 0 0 -101 2 0M356 720l0 -101M356 720l1 0 0 -101 2 0M359 720l0 -101M359 720l1 0 0 -101 2 0M362 720l0 -101M362 720l1 0 0 -101 2 0M365 720l0 -101"/>
<path stroke="red" d="M365 720l1 0 0 -101 2 0M368 720l0 -101M368 720l1 0 0 -101 2 0M371 720l0 -101M371 720l1 0 0 -101 2 0M374 720l0 -101M374 720l1 0 0 -101 2 0M377 720l0 -101M377 720l1 0 0 -101 2 0M380 720l0 -101M380 720l1 0 0 -101 2 0M383 720l0 -101"/>
<path stroke="red" d="M383 720l1 0 0 -101 2 0M386 720l0 -101M386 720l1 0 0 -101 2 0M389 720l0 -101M389 720l1 0 0 -101 2 0M392 720l0 -101M392 720l1 0 0 -101 2 0M395 720l0 -101M395 720l1 0 0 -101 2 0M398 720l0 -101M398 720l1 0 0 -101 2 0M401 720l0 -101"/>
<path stroke="red" d="M401 720l1 0 0 -101 2 0M404 720l0 -101M404 720l1 0 0 -101 2 0M407 720l0 -101M407 720l1 0 0 -101 2 0M410 720l0 -101M410 720l1 0 0 -101 2 0M413 720l0 -101M413 720l1 0 0 -101 2 0M416 720l0 -101M416 720l1 0 0 -101 2 0M419 720l0 -101"/>
<path stroke="red" d="M419 720l1 0 0 -101 2 0M422 720l0 -101M422 720l1 0 0 -101 2 0M425 720l0 -101M425 720l1 0 0 -101 2 0M428 720l0 -101M428 720l1 0 0 -101 2 0M431 720l0 -101M431 720l1 0 0 -101 2 0M434 720l0 -101M434 720l1 0 0 -101 2 0M437 720l0 -101"/>
<path stroke="red" d="M437 720l1 0 0 -101 2 0M440 720l0 -101M440 720l1 0 0 -101 2 0M443 720l0 -101M443 720l1 0 0 -101 2 0M446 720l0 -101M446 720l1 0 0 -101 2 0M449 720l0 -101M449 720l1 0 0 -101 2 0M452 720l0 -101M452 720l1 0 0 -101 2 0M455 720l0 -101"/>
<path stroke="red" d="M455 720l1 0 0 -101 2 0M458 720l0 -101M458 720l1 0 0 -101 2 0M461 720l0 -101M461 720l1 0 0 -101 2 0M464 720l0 -101M464 720l1 0 0 -101 2 0M467 720l0 -101M467 720l1 0 0 -101 2 0M470 720l0 -101M470 720l1 0 0 -101 2 0M473 720l0 -101"/>
<path stroke="red" d="M473 720l1 0 0 -101 2 0M476 720l0 -101M476 720l1 0 0 -101 2 0M479 720l0 -101M479 720l1 0 0 -101 2 0M482 720l0 -101M482 720l1 0 0 -101 2 0M485 720l0 -101M485 720l1 0 0 -101 2 0M488 720l0 -101M488 720l1 0 0 -101 2 0M491 720l0 -101"/>
<path stroke="red" d="M491 720l1 0 0 -101 2 0M494 720l0 -101M494 720l1 0 0 -101 2 0M497 720l0 -101M497 720l1 0 0 -101 2 0M500 720l0 -101M500 720l1 0 0 -101 2 0M503 720l0 -101M503 720l1 0 0 -101 2 0M506 720l0 -101M506 720l1 0 0 -101 2 0M509 720l0 -101"/>
<path stroke="red" d="M509 720l1 0 0 -101 2 0M512 720l0 -101M512 720l1 0 0 -101 2 0M515 720l0 -101M515 720l1 0 0 -101 2 0M518 720l0 -101M518 720l1 0 0 -101 2 0M521 720l0 -101M521 720l1 0 0 -101 2 0M524 720l0 -101M524 720l1 0 0 -101 2 0M527 720l0 -101"/>
<path stroke="red" d="M527 720l1 0 0 -101 2 0M530 720l0 -101M530 720l1 0 0 -101 2 0M533 720l0 -101M533 720l1 0 0 -101 2 0M536 720l0 -101M536 720l1 0 0 -101 2 0M539 720l0 -101M539 720l1 0 0 -101 2 0M542 720l0 -101M542 720l1 0 0 -101 2 0M545 720l0 -101"/>
<path stroke="red" d="M545 720l1 0 0 -101 2 0M548 720l0 -101M548 720l1 0 0 -101 2 0M551 720l0 -101M551 720l1 0 0 -101 2 0M554 720l0 -101M554 720l1 0 0 -101 2 0M557 720l0 -101M557 720l1 0 0 -101 2 0M560 720l0 -101M560 720l1 0 0 -101 2 0M563 720l0 -101"/>
<path stroke="red" d="M563 720l1 0 0 -101 2 0M566 720l0 -101M566 720l1 0 0 -101 2 0M569 720l0 -101M569 720l1 0 0 -101 2 0M572 720l0 -101M572 720l1 0 0 -101 2 0M575 720l0 -101M575 720l1 0 0 -101 2 0M578 720l0 -101M578 720l1 0 0 -101 2 0M581 720l0 -101"/>
<path stroke="red" d="M581 720l1 0 0 -101 2 0M584 720l0 -101M584 720l1 0 0 -101 2 0M587 720l0 -101M587 720l1 0 0 -101 2 0M590 720l0 -101M590 720l1 0 0 -101 2 0M593 720l0 -101M593 720l1 0 0 -101 2 0M596 720l0 -101M596 720l1 0 0 -101 2 0M599 720l0 -101"/>
<path stroke="red" d="M599 720l1 0 0 -101 2 0M602 720l0 -101M602 720l1 0 0 -101 2 0M605 720l0 -101M605 720l1 0 0 -101 2 0M608 720l0 -101M608 720l1 0 0 -101 2 0M611 720l0 -101M611 720l1 0 0 -101 2 0M614 720l0 -101M614 720l1 0 0 -101 2 0M617 720l0 -101"/>
<path stroke="red" d="M617 720l1 0 0 -101 2 0M620 720l0 -101M620 720l1 0 0 -101 2 0M623 720l0 -101M623 720l1 0 0 -101 2 0M626 720l0 -101M626 720l1 0 0 -101 2 0M629 720l0 -101M629 720l1 0 0 -101 2 0M632 720l0 -101M632 720l1 0 0 -101 2 0M635 720l0 -101"/>
<path stroke="red" d="M635 720l1 0 0 -101 2 0M638 720l0 -101M638 720l1 0 0 -101 2 0M641 720l0 -101M641 720l1 0 0 -101 2 0M644 720l0 -101M644 720l1 0 0 -101 2 0M647 720l0 -101M647 720l1 0 0 -101 2 0M650 720l0 -101M650 720l1 0 0 -101 2 0M653 720l0 -101"/>
<path stroke="red" d="M653 720l1 0 0 -101 2 0M656 720l0 -101M656 720l1 0 0 -101 2 0M659 720l0 -101M659 720l1 0 0 -101 2 0M662 720l0 -101M662 720l1 0 0 -101 2 0M665 720l0 -101M665 720l1 0 0 -101 2 0M668 720l0 -101M668 720l1 0 0 -101 2 0M671 720l0 -101"/>
<path stroke="red" d="M671 720l1 0 0 -101 2 0M674 720l0 -101M674 720l1 0 0 -101 2 0M677 720l0 -101M677 720l1 0 0 -101 2 0M680 720l0 -101M680 720l1 0 0 -101 2 0M683 720l0 -101M683 720l1 0 0 -101 2 0M686 720l0 -101M686 720l1 0 0 -101 2 0M689 720l0 -101"/>
<path stroke="red" d="M689 720l1 0 0 -101 2 0M692 720l0 -101M692 720l1 0 0 -101 2 0M695 720l0 -101M695 720l1 0 0 -101 2 0M698 720l0 -101M698 720l1 0 0 -101 2 0M701 720l0 -101M701 720l1 0 0 -101 2 0M704 720l0 -101M704 720l1 0 0 -101 2 0M707 720l0 -101"/>
<path stroke="red" d="M707 720l1 0 0 -101 2 0M710 720l0 -101M710 720l1 0 0 -101 2 0M713 720l0 -101M713 720l1 0 0 -101 2 0M716 720l0 -101M716 720l1 0 0 -101 2 0M719 720l0 -101M719 720l1 0 0 -101 2 0M722 720l0 -101M722 720l1 0 0 -101 2 0M725 720l0 -101"/>
<path stroke="red" d="M725 720l1 0 0 -101 2 0M728 720l0 -101M728 720l1 0 0 -101 2 0M731 720l0 -101M731 720l1 0 0 -101 2 0M734 720l0 -101M734 720l1 0 0 -101 2 0M737 720l0 -101M737 720l1 0 0 -101 2 0M740 720l0 -101M740 720l1 0 0 -101 2 0M743 720l0 -101"/>
<path stroke="red" d="M743 720l1 0 0 -101 2 0M746 720l0 -101M746 720l1 0 0 -101 2 0M749 720l0 -101M749 720l1 0 0 -101 2 0M752 720l0 -101M752 720l1 0 0 -101 2 0M755 720l0 -101M755 720l1 0 0 -101 2 0M758 720l0 -101M758 720l1 0 0 -101 2 0M761 720l0 -101"/>
<path stroke="red" d="M761 720l1 0 0 -101 2 0M764 720l0 -101M764 720l1 0 0 -101 2 0M767 720l0 -101M767 720l1 0 0 -101 2 0M770 720l0 -101M770 720l1 0 0 -101 2 0M773 720l0 -101M773 720l1 0 0 -101 2 0M776 720l0 -101M776 720l1 0 0 -101 2 0M779 720l0 -101"/>
<path stroke="red" d="M779 720l1 0 0 -101 2 0M782 720l0 -101M782 720l1 0 0 -101 2 0M785 720l0 -101M785 720l1 0 0 -101 2 0M788 720l0 -101M788 720l1 0 0 -101 2 0M791 720l0 -101M791 720l1 0 0 -101 2 0M794 720l0 -101M794 720l1 0 0 -101 2 0M797 720l0 -101"/>
<path stroke="red" d="M797 720l1 0 0 -101 2 0M800 720l0 -101M800 720l1 0 0 -101 2 0M803 720l0 -101M803 720l1 0 0 -101 2 0M806 720l0 -101M806 720l1 0 0 -101 2 0M809 720l0 -101M809 720l1 0 0 -101 2 0M812 720l0 -101M812 720l1 0 0 -101 2 0M815 720l0 -101"/>
<path stroke="red" d="M815 720l1 0 0 -101 2 0M818 720l0 -101M818 720l1 0 0 -101 2 0M821 720l0 -101M821 720l1 0 0 -101 2 0M824 720l0 -101M824 720l1 0 0 -101 2 0M827 720l0 -101M827 720l1 0 0 -101 2 0M830 720l0 -101M830 720l1 0 0 -101 2 0M833 720l0 -101"/>
<path stroke="red" d="M833 720l1 0 0 -101 2 0M836 720l0 -101M836 720l1 0 0 -101 2 0M839 720l0 -101M839 720l1 0 0 -101 2 0M842 720l0 -101M842 720l1 0 0 -101 2 0M845 720l0 -101M845 720l1 0 0 -101 2 0M848 720l0 -101M848 720l1 0 0 -101 2 0M851 720l0 -101"/>
<path stroke="red" d="M851 720l1 0 0 -101 2 0M854 720l0 -101M854 720l1 0 0 -101 2 0M857 720l0 -101M857 720l1 0 0 -101 2 0M860 720l0 -101M860 720l1 0 0 -101 2 0M863 720l0 -101M863 720l1 0 0 -101 2 0M866 720l0 -101M866 720l1 0 0 -101 2 0M869 720l0 -101"/>
<path stroke="red" d="M869 720l1 0 0 -101 2 0M872 720l0 -101M872 720l1 0 0 -101 2 0M875 720l0 -101M875 720l1 0 0 -101 2 0M878 720l0 -101M878 720l1 0 0 -101 2 0M881 720l0 -101M881 720l1 0 0 -101 2 0M884 720l0 -101M884 720l1 0 0 -101 2 0M887 720l0 -101"/>
<path stroke="red" d="M887 720l1 0 0 -101 2 0M890 720l0 -101M890 720l1 0 0 -101 2 0M893 720l0 -101M893 720l1 0 0 -101 2 0M896 720l0 -101M896 720l1 0 0 -101 2 0M899 720l0 -101M899 720l1 0 0 -101 2 0M902 720l0 -101M902 720l1 0 0 -101 2 0M905 720l0 -101"/>
<path stroke="red" d="M905 720l1 0 0 -101 2 0M908 720l0 -101M908 720l1 0 0 -101 2 0M911 720l0 -101M911 720l1 0 0 -101 2 0M914 720l0 -101M914 720l1 0 0 -101 2 0M917 720l0 -101M917 720l1 0 0 -101 2 0M920 720l0 -101M920 720l1 0 0 -101 2 0M923 720l0 -101"/>
<path stroke="red" d="M923 720l1 0 0 -101 2 0M926 720l0 -101M926 720l1 0 0 -101 2 0M929 720l0 -101M929 720l1 0 0 -101 2 0M932 720l0 -101M932 720l1 0 0 -101 2 0M935 720l0 -101M935 720l1 0 0 -101 2 0M938 720l0 -101M938 720l1 0 0 -101 2 0M941 720l0 -101"/>
<path stroke="red" d="M941 720l1 0 0 -101 2 0M944 720l0 -101M944 720l1 0 0 -101 2 0M947 720l0 -101M947 720l1 0 0 -101 2 0M950 720l0 -101M950 720l1 0 0 -101 2 0M953 720l0 -101M953 720l1 0 0 -101 2 0M956 720l0 -101M956 720l1 0 0 -101 2 0M959 720l0 -101"/>
<path stroke="red" d="M959 720l1 0"/>
<path stroke="blue" d="M60 23l45 0"/>
<text stroke="none" fill="white" font-size="16" x="115" y="32">
S0+2
</text>
<path stroke="blue" d="M60 608l0 -1M60 608l1 0M61 610l0 -103 1 0 0 -1M62 507l2 0M64 608l0 -103M64 608l1 0 0 -1M65 608l2 0M67 612l0 -105 1 0 0 -2M68 507l2 0M70 608l0 -103M70 608l1 0 0 -1M71 608l2 0M73 612l0 -105 1 0 0 -2M74 507l2 0M76 608l0 -103"/>
<path stroke="blue" d="M76 608l1 0 0 -1M77 608l2 0M79 612l0 -105 1 0 0 -1M80 507l2 0M82 608l0 -103M82 608l1 0 0 -1M83 608l2 0M85 612l0 -105 1 0 0 -2M86 507l2 0M88 608l0 -104M88 608l1 0 0 -1M89 608l2 0M91 610l0 -103 1 0 0 -2M92 507l2 0M94 608l0 -104"/>
<path stroke="blue" d="M94 608l1 0 0 -1M95 608l2 0M97 610l0 -103 1 0 0 -1M98 507l2 0M100 608l0 -104M100 608l1 0 0 -1M101 608l2 0M103 610l0 -103 1 0 0 -1M104 507l2 0M106 608l0 -104M106 608l1 0 0 -1M107 608l1 0M108 609l0 -1 1 0M109 610l0 -103 1 0"/>
<path stroke="blue" d="M110 507l0 -1M110 507l2 0M112 608l0 -104M112 608l1 0 0 -1M113 608l2 0M115 611l0 -104 1 0 0 -2M116 507l2 0M118 608l0 -104M118 608l1 0 0 -1M119 608l2 0M121 612l0 -105 1 0 0 -2M122 507l2 0M124 608l0 -104M124 608l1 0 0 -1M125 608l2 0"/>
<path stroke="blue" d="M127 612l0 -105 1 0 0 -2M128 507l2 0M130 608l0 -104M130 608l1 0 0 -1M131 608l2 0M133 612l0 -105 1 0 0 -2M134 507l2 0M136 608l0 -104M136 608l1 0 0 -1M137 608l2 0M139 610l0 -103 1 0 0 -2M140 507l2 0M142 608l0 -104M142 608l1 0"/>
<path stroke="blue" d="M143 608l0 -1M143 608l2 0M145 610l0 -103 1 0 0 -2M146 507l2 0M148 608l0 -104M148 608l1 0 0 -1M149 608l2 0M151 610l0 -103 1 0 0 -2M152 507l2 0M154 608l0 -104M154 608l1 0 0 -1M155 608l2 0M157 610l0 -103 1 0 0 -2M158 507l2 0"/>
<path stroke="blue" d="M160 608l0 -103M160 608l1 0 0 -1M161 608l2 0M163 612l0 -105 1 0 0 -1M164 507l2 0M166 608l0 -104M166 608l1 0 0 -1M167 608l2 0M169 612l0 -105 1 0 0 -2M170 507l2 0M172 608l0 -103M172 608l1 0 0 -1M173 608l2 0M175 612l0 -105"/>
<path stroke="blue" d="M175 507l1 0 0 -1M176 507l2 0M178 608l0 -103M178 608l1 0 0 -1M179 608l2 0M181 612l0 -105 1 0 0 -2M182 507l2 0M184 608l0 -104M184 608l1 0 0 -1M185 608l2 0M187 610l0 -103 1 0 0 -1M188 507l2 0M190 608l0 -104M190 608l1 0 0 -1"/>
<path stroke="blue" d="M191 608l2 0M193 610l0 -103 1 0 0 -1M194 507l2 0M196 608l0 -104M196 608l1 0 0 -1M197 608l2 0M199 610l0 -103 1 0 0 -1M200 507l2 0M202 608l0 -104M202 608l1 0 0 -1M203 608l1 0M204 609l0 -1 1 0M205 610l0 -103 1 0 0 -2M206 507l2 0"/>
<path stroke="blue" d="M208 608l0 -104M208 608l1 0 0 -1M209 608l2 0M211 612l0 -105 1 0 0 -2M212 507l2 0M214 608l0 -104M214 608l1 0 0 -1M215 608l2 0M217 611l0 -104 1 0 0 -2M218 507l2 0M220 608l0 -104M220 608l1 0 0 -1M221 608l2 0M223 612l0 -105"/>
<path stroke="blue" d="M223 507l1 0 0 -2M224 507l2 0M226 608l0 -104M226 608l1 0 0 -1M227 608l2 0M229 612l0 -105 1 0 0 -2M230 507l2 0M232 608l0 -104M232 608l1 0 0 -1M233 608l2 0M235 610l0 -103 1 0 0 -2M236 507l2 0M238 608l0 -104M238 608l1 0 0 -1"/>
<path stroke="blue" d="M239 608l2 0M241 610l0 -103 1 0 0 -2M242 507l2 0M244 608l0 -104M244 608l1 0 0 -1M245 608l2 0M247 610l0 -103 1 0 0 -2M248 507l2 0M250 608l0 -104M250 608l1 0 0 -1M251 608l2 0M253 610l0 -103 1 0 0 -2M254 507l2 0M256 608l0 -103"/>
<path stroke="blue" d="M256 608l1 0 0 -1M257 608l2 0M259 612l0 -105 1 0 0 -1M260 507l2 0M262 608l0 -103M262 608l1 0 0 -1M263 608l2 0M265 612l0 -105 1 0 0 -2M266 507l2 0M268 608l0 -104M268 608l1 0 0 -1M269 608l2 0M271 612l0 -105 1 0 0 -2M272 507l2 0"/>
<path stroke="blue" d="M274 608l0 -103M274 608l1 0 0 -1M275 608l2 0M277 612l0 -105 1 0 0 -2M278 507l2 0M280 608l0 -103M280 608l1 0 0 -1M281 608l2 0M283 610l0 -103 1 0 0 -2M284 507l2 0M286 608l0 -104M286 608l1 0 0 -1M287 608l2 0M289 610l0 -103"/>
<path stroke="blue" d="M289 507l1 0 0 -1M290 507l2 0M292 608l0 -104M292 608l1 0 0 -1M293 608l2 0M295 610l0 -103 1 0 0 -2M296 507l2 0M298 608l0 -104M298 608l1 0 0 -1M299 608l1 0M300 609l0 -1 1 0M301 610l0 -103 1 0 0 -2M302 507l2 0M304 608l0 -104"/>
<path stroke="blue" d="M304 608l1 0 0 -1M305 608l2 0M307 612l0 -105 1 0 0 -2M308 507l2 0M310 608l0 -104M310 608l1 0 0 -1M311 608l2 0M313 612l0 -105 1 0 0 -2M314 507l2 0M316 608l0 -104M316 608l1 0 0 -1M317 608l2 0M319 611l0 -104 1 0 0 -2M320 507l2 0"/>
<path stroke="blue" d="M322 608l0 -104M322 608l1 0 0 -1M323 608l2 0M325 612l0 -105 1 0 0 -1M326 507l2 0M328 608l0 -104M328 608l1 0 0 -1M329 608l2 0M331 610l0 -103 1 0 0 -2M332 507l2 0M334 608l0 -104M334 608l1 0 0 -1M335 608l2 0M337 610l0 -103"/>
<path stroke="blue" d="M337 507l1 0 0 -2M338 507l2 0M340 608l0 -104M340 608l1 0 0 -1M341 608l2 0M343 610l0 -103 1 0 0 -2M344 507l2 0M346 608l0 -104M346 608l1 0 0 -1M347 608l2 0M349 612l0 -105 1 0 0 -1M350 507l2 0M352 608l0 -103M352 608l1 0 0 -1"/>
<path stroke="blue" d="M353 608l2 0M355 612l0 -105 1 0 0 -1M356 507l2 0M358 608l0 -104M358 608l1 0 0 -1M359 608l2 0M361 612l0 -105 1 0 0 -1M362 507l2 0M364 608l0 -103M364 608l1 0 0 -1M365 608l2 0M367 612l0 -105 1 0 0 -1M368 507l2 0M370 608l0 -104"/>
<path stroke="blue" d="M370 608l1 0 0 -1M371 608l2 0M373 612l0 -105 1 0 0 -2M374 507l2 0M376 608l0 -104M376 608l1 0 0 -1M377 608l2 0M379 610l0 -103 1 0 0 -1M380 507l2 0M382 608l0 -104M382 608l1 0 0 -1M383 608l2 0M385 610l0 -103 1 0 0 -1M386 507l2 0"/>
<path stroke="blue" d="M388 608l0 -104M388 608l1 0 0 -1M389 608l2 0M391 610l0 -103 1 0 0 -1M392 507l2 0M394 608l0 -104M394 608l1 0 0 -1M395 608l1 0M396 609l0 -1 1 0M397 610l0 -103 1 0 0 -1M398 507l2 0M400 608l0 -104M400 608l1 0 0 -1M401 608l2 0"/>
<path stroke="blue" d="M403 612l0 -105 1 0 0 -2M404 507l2 0M406 608l0 -104M406 608l1 0 0 -1M407 608l2 0M409 612l0 -105 1 0 0 -2M410 507l2 0M412 608l0 -104M412 608l1 0 0 -1M413 608l2 0M415 612l0 -105 1 0 0 -2M416 507l2 0M418 608l0 -104M418 608l1 0"/>
<path stroke="blue" d="M419 608l0 -1M419 608l2 0M421 611l0 -104 1 0 0 -2M422 507l2 0M424 608l0 -104M424 608l1 0 0 -1M425 608l2 0M427 610l0 -103 1 0 0 -2M428 507l2 0M430 608l0 -104M430 608l1 0 0 -1M431 608l2 0M433 610l0 -103 1 0 0 -2M434 507l2 0"/>
<path stroke="blue" d="M436 608l0 -104M436 608l1 0 0 -1M437 608l2 0M439 610l0 -103 1 0 0 -2M440 507l2 0M442 608l0 -104M442 608l1 0 0 -1M443 608l2 0M445 610l0 -103 1 0 0 -1M446 507l2 0M448 608l0 -103M448 608l1 0 0 -1M449 608l2 0M451 612l0 -105"/>
<path stroke="blue" d="M451 507l1 0 0 -1M452 507l2 0M454 608l0 -103M454 608l1 0 0 -1M455 608l2 0M457 612l0 -105 1 0 0 -1M458 507l2 0M460 608l0 -103M460 608l1 0 0 -1M461 608l2 0M463 612l0 -105 1 0 0 -1M464 507l2 0M466 608l0 -103M466 608l1 0 0 -1"/>
<path stroke="blue" d="M467 608l2 0M469 612l0 -105 1 0 0 -1M470 507l2 0M472 608l0 -104M472 608l1 0 0 -1M473 608l2 0M475 610l0 -103 1 0 0 -2M476 507l2 0M478 608l0 -104M478 608l1 0 0 -1M479 608l2 0M481 610l0 -103 1 0 0 -2M482 507l2 0M484 608l0 -104"/>
<path stroke="blue" d="M484 608l1 0 0 -1M485 608l2 0M487 610l0 -103 1 0 0 -1M488 507l2 0M490 608l0 -104M490 608l1 0 0 -1M491 608l1 0M492 609l0 -1 1 0M493 610l0 -103 1 0 0 -2M494 507l2 0M496 608l0 -104M496 608l1 0 0 -1M497 608l2 0M499 612l0 -105"/>
<path stroke="blue" d="M499 507l1 0 0 -2M500 507l2 0M502 608l0 -104M502 608l1 0 0 -1M503 608l2 0M505 612l0 -105 1 0 0 -2M506 507l2 0M508 608l0 -104M508 608l1 0 0 -1M509 608l2 0M511 612l0 -105 1 0 0 -2M512 507l2 0M514 608l0 -104M514 608l1 0 0 -1"/>
<path stroke="blue" d="M515 608l2 0M517 612l0 -105 1 0 0 -2M518 507l2 0M520 608l0 -104M520 608l1 0 0 -1M521 608l2 0M523 610l0 -103 1 0 0 -2M524 507l2 0M526 608l0 -104M526 608l1 0 0 -1M527 608l2 0M529 610l0 -103 1 0 0 -2M530 507l2 0M532 608l0 -104"/>
<path stroke="blue" d="M532 608l1 0 0 -1M533 608l2 0M535 610l0 -103 1 0 0 -2M536 507l2 0M538 608l0 -104M538 608l1 0 0 -1M539 608l2 0M541 610l0 -103 1 0 0 -2M542 507l2 0M544 608l0 -103M544 608l1 0 0 -1M545 608l2 0M547 612l0 -105 1 0 0 -1M548 507l2 0"/>
<path stroke="blue" d="M550 608l0 -104M550 608l1 0 0 -1M551 608l2 0M553 612l0 -105 1 0 0 -1M554 507l2 0M556 608l0 -103M556 608l1 0 0 -1M557 608l2 0M559 612l0 -105 1 0 0 -1M560 507l2 0M562 608l0 -103M562 608l1 0 0 -1M563 608l2 0M565 612l0 -105"/>
<path stroke="blue" d="M565 507l1 0 0 -2M566 507l2 0M568 608l0 -104M568 608l1 0 0 -1M569 608l2 0M571 610l0 -103 1 0 0 -1M572 507l2 0M574 608l0 -104M574 608l1 0 0 -1M575 608l2 0M577 610l0 -103 1 0 0 -2M578 507l2 0M580 608l0 -104M580 608l1 0 0 -1"/>
<path stroke="blue" d="M581 608l2 0M583 610l0 -103 1 0 0 -1M584 507l2 0M586 608l0 -104M586 608l1 0 0 -1M587 608l1 0M588 609l0 -1 1 0M589 610l0 -103 1 0 0 -2M590 507l2 0M592 608l0 -104M592 608l1 0 0 -1M593 608l2 0M595 612l0 -105 1 0 0 -2M596 507l2 0"/>
<path stroke="blue" d="M598 608l0 -104M598 608l1 0 0 -1M599 608l2 0M601 612l0 -105 1 0 0 -2M602 507l2 0M604 608l0 -104M604 608l1 0 0 -1M605 608l2 0M607 612l0 -105 1 0 0 -2M608 507l2 0M610 608l0 -104M610 608l1 0 0 -1M611 608l2 0M613 612l0 -105"/>
<path stroke="blue" d="M613 507l1 0 0 -2M614 507l2 0M616 608l0 -104M616 608l1 0 0 -1M617 608l2 0M619 610l0 -103 1 0 0 -2M620 507l2 0M622 608l0 -104M622 608l1 0 0 -1M623 608l2 0M625 610l0 -103 1 0 0 -2M626 507l2 0M628 608l0 -104M628 608l1 0 0 -1"/>
<path stroke="blue" d="M629 608l2 0M631 610l0 -103 1 0 0 -2M632 507l2 0M634 608l0 -104M634 608l1 0 0 -1M635 608l2 0M637 611l0 -104 1 0 0 -1M638 507l2 0M640 608l0 -103M640 608l1 0 0 -1M641 608l2 0M643 612l0 -105 1 0 0 -1M644 507l2 0M646 608l0 -103"/>
<path stroke="blue" d="M646 608l1 0 0 -1M647 608l2 0M649 612l0 -105 1 0 0 -1M650 507l2 0M652 608l0 -103M652 608l1 0 0 -1M653 608l2 0M655 612l0 -105 1 0 0 -1M656 507l2 0M658 608l0 -103M658 608l1 0 0 -1M659 608l2 0M661 612l0 -105 1 0 0 -2M662 507l2 0"/>
<path stroke="blue" d="M664 608l0 -104M664 608l1 0 0 -1M665 608l2 0M667 610l0 -103 1 0 0 -2M668 507l2 0M670 608l0 -104M670 608l1 0 0 -1M671 608l2 0M673 610l0 -103 1 0 0 -1M674 507l2 0M676 608l0 -104M676 608l1 0 0 -1M677 608l2 0M679 610l0 -103"/>
<path stroke="blue" d="M679 507l1 0 0 -2M680 507l2 0M682 608l0 -104M682 608l1 0 0 -1M683 608l1 0M684 609l0 -1 1 0M685 610l0 -103 1 0 0 -2M686 507l2 0M688 608l0 -104M688 608l1 0 0 -1M689 608l2 0M691 612l0 -105 1 0 0 -2M692 507l2 0M694 608l0 -104"/>
<path stroke="blue" d="M694 608l1 0 0 -1M695 608l2 0M697 612l0 -105 1 0 0 -2M698 507l2 0M700 608l0 -104M700 608l1 0 0 -1M701 608l2 0M703 612l0 -105 1 0 0 -2M704 507l2 0M706 608l0 -104M706 608l1 0 0 -1M707 608l2 0M709 612l0 -105 1 0 0 -2M710 507l2 0"/>
<path stroke="blue" d="M712 608l0 -104M712 608l1 0 0 -1M713 608l2 0M715 610l0 -103 1 0 0 -2M716 507l2 0M718 608l0 -104M718 608l1 0 0 -1M719 608l2 0M721 610l0 -103 1 0 0 -2M722 507l2 0M724 608l0 -104M724 608l1 0 0 -1M725 608l2 0M727 610l0 -103"/>
<path stroke="blue" d="M727 507l1 0 0 -2M728 507l2 0M730 608l0 -104M730 608l1 0 0 -1M731 608l2 0M733 610l0 -103 1 0 0 -1M734 507l2 0M736 608l0 -103M736 608l1 0 0 -1M737 608l2 0M739 612l0 -105 1 0 0 -1M740 507l2 0M742 608l0 -103M742 608l1 0 0 -1"/>
<path stroke="blue" d="M743 608l2 0M745 612l0 -105 1 0 0 -1M746 507l2 0M748 608l0 -103M748 608l1 0 0 -1M749 608l2 0M751 612l0 -105 1 0 0 -1M752 507l2 0M754 608l0 -103M754 608l1 0 0 -1M755 608l2 0M757 612l0 -105 1 0 0 -2M758 507l2 0M760 608l0 -104"/>
<path stroke="blue" d="M760 608l1 0 0 -1M761 608l2 0M763 610l0 -103 1 0 0 -1M764 507l2 0M766 608l0 -104M766 608l1 0 0 -1M767 608l2 0M769 610l0 -103 1 0 0 -1M770 507l2 0M772 608l0 -104M772 608l1 0 0 -1M773 608l2 0M775 610l0 -103 1 0 0 -1M776 507l2 0"/>
<path stroke="blue" d="M778 608l0 -104M778 608l1 0 0 -1M779 608l1 0M780 609l0 -1 1 0M781 610l0 -103 1 0 0 -1M782 507l2 0M784 608l0 -104M784 608l1 0 0 -1M785 608l2 0M787 612l0 -105 1 0 0 -2M788 507l2 0M790 608l0 -104M790 608l1 0 0 -1M791 608l2 0"/>
<path stroke="blue" d="M793 612l0 -105 1 0 0 -2M794 507l2 0M796 608l0 -104M796 608l1 0 0 -1M797 608l2 0M799 612l0 -105 1 0 0 -2M800 507l2 0M802 608l0 -104M802 608l1 0 0 -1M803 608l2 0M805 612l0 -105 1 0 0 -2M806 507l2 0M808 608l0 -104M808 608l1 0"/>
<path stroke="blue" d="M809 608l0 -1M809 608l2 0M811 610l0 -103 1 0 0 -2M812 507l2 0M814 608l0 -104M814 608l1 0 0 -1M815 608l2 0M817 610l0 -103 1 0 0 -2M818 507l2 0M820 608l0 -104M820 608l1 0 0 -1M821 608l2 0M823 610l0 -103 1 0 0 -2M824 507l2 0"/>
<path stroke="blue" d="M826 608l0 -104M826 608l1 0 0 -1M827 608l2 0M829 610l0 -103 1 0 0 -1M830 507l2 0M832 608l0 -103M832 608l1 0 0 -1M833 608l2 0M835 612l0 -105 1 0 0 -2M836 507l2 0M838 608l0 -103M838 608l1 0 0 -1M839 608l2 0M841 612l0 -105"/>
<path stroke="blue" d="M841 507l1 0 0 -2M842 507l2 0M844 608l0 -103M844 608l1 0 0 -1M845 608l2 0M847 612l0 -105 1 0 0 -1M848 507l2 0M850 608l0 -103M850 608l1 0 0 -1M851 608l2 0M853 612l0 -105 1 0 0 -2M854 507l2 0M856 608l0 -104M856 608l1 0 0 -1"/>
<path stroke="blue" d="M857 608l2 0M859 610l0 -103 1 0 0 -1M860 507l2 0M862 608l0 -104M862 608l1 0 0 -1M863 608l2 0M865 610l0 -103 1 0 0 -1M866 507l2 0M868 608l0 -104M868 608l1 0 0 -1M869 608l2 0M871 610l0 -103 1 0 0 -1M872 507l2 0M874 608l0 -104"/>
<path stroke="blue" d="M874 608l1 0 0 -1M875 608l1 0M876 609l0 -1 1 0M877 610l0 -103 1 0 0 -2M878 507l2 0M880 608l0 -104M880 608l1 0 0 -1M881 608l2 0M883 611l0 -104 1 0 0 -2M884 507l2 0M886 608l0 -104M886 608l1 0 0 -1M887 608l2 0M889 612l0 -105"/>
<path stroke="blue" d="M889 507l1 0 0 -2M890 507l2 0M892 608l0 -104M892 608l1 0 0 -1M893 608l2 0M895 612l0 -105 1 0 0 -2M896 507l2 0M898 608l0 -104M898 608l1 0 0 -1M899 608l2 0M901 612l0 -105 1 0 0 -2M902 507l2 0M904 608l0 -104M904 608l1 0 0 -1"/>
<path stroke="blue" d="M905 608l2 0M907 610l0 -103 1 0 0 -2M908 507l2 0M910 608l0 -104M910 608l1 0 0 -1M911 608l2 0M913 610l0 -103 1 0 0 -2M914 507l2 0M916 608l0 -104M916 608l1 0 0 -1M917 608l2 0M919 610l0 -103 1 0 0 -2M920 507l2 0M922 608l0 -104"/>
<path stroke="blue" d="M922 608l1 0 0 -1M923 608l2 0M925 610l0 -103 1 0 0 -1M926 507l2 0M928 608l0 -103M928 608l1 0 0 -1M929 608l2 0M931 612l0 -105 1 0 0 -1M932 507l2 0M934 608l0 -104M934 608l1 0 0 -1M935 608l2 0M937 612l0 -105 1 0 0 -2M938 507l2 0"/>
<path stroke="blue" d="M940 608l0 -103M940 608l1 0 0 -1M941 608l2 0M943 612l0 -105 1 0 0 -1M944 507l2 0M946 608l0 -103M946 608l1 0 0 -1M947 608l2 0M949 612l0 -105 1 0 0 -2M950 507l2 0M952 608l0 -104M952 608l1 0 0 -1M953 608l2 0M955 610l0 -103"/>
<path stroke="blue" d="M955 507l1 0 0 -1M956 507l2 0M958 608l0 -104M958 608l1 0 0 -1M959 608l1 0"/>
<path stroke="#FFA500" d="M450 39l45 0"/>
<text stroke="none" fill="white" font-size="16" x="505" y="48">
S1+4
</text>
<path stroke="#FFA500" d="M60 496l0 -1M60 496l1 0M61 497l0 -102 3 0 0 -1M64 395l3 0M67 496l0 -104M67 496l3 0 0 -1M70 496l3 0M73 497l0 -102 3 0 0 -1M76 395l3 0M79 496l0 -104M79 496l3 0 0 -1M82 496l3 0M85 497l0 -102 3 0 0 -1M88 395l3 0M91 496l0 -104"/>
<path stroke="#FFA500" d="M91 496l3 0 0 -1M94 496l3 0M97 498l0 -103 3 0 0 -2M100 395l3 0M103 496l0 -103M103 496l3 0 0 -1M106 496l3 0M109 498l0 -103 3 0 0 -1M112 395l3 0M115 496l0 -104M115 496l3 0 0 -1M118 496l3 0M121 498l0 -103 3 0 0 -1M124 395l3 0"/>
<path stroke="#FFA500" d="M127 496l0 -104M127 496l3 0 0 -1M130 496l3 0M133 498l0 -103 3 0 0 -1M136 395l3 0M139 496l0 -104M139 496l3 0 0 -1M142 496l3 0M145 498l0 -103 3 0 0 -1M148 395l3 0M151 496l0 -104M151 496l3 0 0 -1M154 496l2 0M156 497l0 -1"/>
<path stroke="#FFA500" d="M156 496l1 0M157 500l0 -105 3 0 0 -2M160 395l3 0M163 496l0 -104M163 496l3 0 0 -1M166 496l3 0M169 497l0 -102 3 0 0 -2M172 395l3 0M175 496l0 -104M175 496l3 0 0 -1M178 496l3 0M181 497l0 -102 3 0 0 -2M184 395l3 0M187 496l0 -104"/>
<path stroke="#FFA500" d="M187 496l3 0 0 -1M190 496l3 0M193 499l0 -104 3 0 0 -2M196 395l3 0M199 496l0 -104M199 496l3 0 0 -1M202 496l3 0M205 498l0 -103 3 0 0 -2M208 395l3 0M211 496l0 -104M211 496l3 0 0 -1M214 496l3 0M217 499l0 -104 3 0 0 -2M220 395l3 0"/>
<path stroke="#FFA500" d="M223 496l0 -104M223 496l3 0 0 -1M226 496l3 0M229 498l0 -103 3 0 0 -1M232 395l3 0M235 496l0 -104M235 496l3 0 0 -1M238 496l3 0M241 498l0 -103 3 0 0 -1M244 395l3 0M247 496l0 -104M247 496l3 0 0 -1M250 496l3 0M253 497l0 -102"/>
<path stroke="#FFA500" d="M253 395l3 0 0 -2M256 395l3 0M259 496l0 -104M259 496l3 0 0 -1M262 496l3 0M265 497l0 -102 3 0 0 -1M268 395l3 0M271 496l0 -104M271 496l3 0 0 -1M274 496l3 0M277 497l0 -102 3 0 0 -1M280 395l3 0M283 496l0 -103M283 496l3 0"/>
<path stroke="#FFA500" d="M286 496l0 -1M286 496l3 0M289 497l0 -102 3 0 0 -1M292 395l3 0M295 496l0 -104M295 496l3 0 0 -1M298 496l3 0M301 498l0 -103 3 0 0 -1M304 395l3 0M307 496l0 -104M307 496l3 0 0 -1M310 496l3 0M313 498l0 -103 3 0 0 -1M316 395l3 0"/>
<path stroke="#FFA500" d="M319 496l0 -104M319 496l3 0 0 -1M322 496l3 0M325 498l0 -103 3 0 0 -1M328 395l3 0M331 496l0 -104M331 496l3 0 0 -1M334 496l3 0M337 498l0 -103 3 0 0 -2M340 395l3 0M343 496l0 -104M343 496l3 0 0 -1M346 496l2 0M348 497l0 -1"/>
<path stroke="#FFA500" d="M348 496l1 0M349 497l0 -102 3 0 0 -2M352 395l3 0M355 496l0 -104M355 496l3 0 0 -1M358 496l3 0M361 497l0 -102 3 0 0 -2M364 395l3 0M367 496l0 -104M367 496l3 0 0 -1M370 496l3 0M373 497l0 -102 3 0 0 -2M376 395l3 0M379 496l0 -104"/>
<path stroke="#FFA500" d="M379 496l3 0 0 -1M382 496l3 0M385 499l0 -104 3 0 0 -2M388 395l3 0M391 496l0 -104M391 496l3 0 0 -1M394 496l3 0M397 498l0 -103 3 0 0 -2M400 395l3 0M403 496l0 -104M403 496l3 0 0 -1M406 496l3 0M409 498l0 -103 3 0 0 -2M412 395l3 0"/>
<path stroke="#FFA500" d="M415 496l0 -104M415 496l3 0 0 -1M418 496l3 0M421 499l0 -104 3 0 0 -1M424 395l3 0M427 496l0 -104M427 496l3 0 0 -1M430 496l3 0M433 498l0 -103 3 0 0 -1M436 395l3 0M439 496l0 -104M439 496l3 0 0 -1M442 496l3 0M445 497l0 -102"/>
<path stroke="#FFA500" d="M445 395l3 0 0 -1M448 395l3 0M451 496l0 -104M451 496l3 0 0 -1M454 496l3 0M457 497l0 -102 3 0 0 -1M460 395l3 0M463 496l0 -104M463 496l3 0 0 -1M466 496l3 0M469 497l0 -102 3 0 0 -1M472 395l3 0M475 496l0 -104M475 496l3 0"/>
<path stroke="#FFA500" d="M478 496l0 -1M478 496l3 0M481 498l0 -103 3 0 0 -1M484 395l3 0M487 496l0 -103M487 496l3 0 0 -1M490 496l3 0M493 498l0 -103 3 0 0 -1M496 395l3 0M499 496l0 -104M499 496l3 0 0 -1M502 496l3 0M505 498l0 -103 3 0 0 -1M508 395l3 0"/>
<path stroke="#FFA500" d="M511 496l0 -104M511 496l3 0 0 -1M514 496l3 0M517 498l0 -103 3 0 0 -1M520 395l3 0M523 496l0 -104M523 496l3 0 0 -1M526 496l3 0M529 498l0 -103 3 0 0 -1M532 395l3 0M535 496l0 -104M535 496l3 0 0 -1M538 496l2 0M540 497l0 -1"/>
<path stroke="#FFA500" d="M540 496l1 0M541 500l0 -105 3 0 0 -2M544 395l3 0M547 496l0 -104M547 496l3 0 0 -1M550 496l3 0M553 497l0 -102 3 0 0 -2M556 395l3 0M559 496l0 -104M559 496l3 0 0 -1M562 496l3 0M565 497l0 -102 3 0 0 -2M568 395l3 0M571 496l0 -104"/>
<path stroke="#FFA500" d="M571 496l3 0 0 -1M574 496l3 0M577 499l0 -104 3 0 0 -1M580 395l3 0M583 496l0 -104M583 496l3 0 0 -1M586 496l3 0M589 498l0 -103 3 0 0 -2M592 395l3 0M595 496l0 -104M595 496l3 0 0 -1M598 496l3 0M601 498l0 -103 3 0 0 -2M604 395l3 0"/>
<path stroke="#FFA500" d="M607 496l0 -104M607 496l3 0 0 -1M610 496l3 0M613 498l0 -103 3 0 0 -2M616 395l3 0M619 496l0 -104M619 496l3 0 0 -1M622 496l3 0M625 500l0 -105 3 0 0 -1M628 395l3 0M631 496l0 -104M631 496l3 0 0 -1M634 496l3 0M637 498l0 -103"/>
<path stroke="#FFA500" d="M637 395l3 0 0 -2M640 395l3 0M643 496l0 -104M643 496l3 0 0 -1M646 496l3 0M649 497l0 -102 3 0 0 -1M652 395l3 0M655 496l0 -104M655 496l3 0 0 -1M658 496l3 0M661 497l0 -102 3 0 0 -1M664 395l3 0M667 496l0 -103M667 496l3 0"/>
<path stroke="#FFA500" d="M670 496l0 -1M670 496l3 0M673 498l0 -103 3 0 0 -1M676 395l3 0M679 496l0 -104M679 496l3 0 0 -1M682 496l3 0M685 498l0 -103 3 0 0 -1M688 395l3 0M691 496l0 -104M691 496l3 0 0 -1M694 496l3 0M697 498l0 -103 3 0 0 -1M700 395l3 0"/>
<path stroke="#FFA500" d="M703 496l0 -104M703 496l3 0 0 -1M706 496l3 0M709 498l0 -103 3 0 0 -1M712 395l3 0M715 496l0 -104M715 496l3 0 0 -1M718 496l3 0M721 498l0 -103 3 0 0 -2M724 395l3 0M727 496l0 -104M727 496l3 0 0 -1M730 496l2 0M732 497l0 -1"/>
<path stroke="#FFA500" d="M732 496l1 0M733 500l0 -105 3 0 0 -2M736 395l3 0M739 496l0 -104M739 496l3 0 0 -1M742 496l3 0M745 497l0 -102 3 0 0 -2M748 395l3 0M751 496l0 -104M751 496l3 0 0 -1M754 496l3 0M757 497l0 -102 3 0 0 -2M760 395l3 0M763 496l0 -104"/>
<path stroke="#FFA500" d="M763 496l3 0 0 -1M766 496l3 0M769 499l0 -104 3 0 0 -2M772 395l3 0M775 496l0 -104M775 496l3 0 0 -1M778 496l3 0M781 499l0 -104 3 0 0 -2M784 395l3 0M787 496l0 -104M787 496l3 0 0 -1M790 496l3 0M793 498l0 -103 3 0 0 -1M796 395l3 0"/>
<path stroke="#FFA500" d="M799 496l0 -104M799 496l3 0 0 -1M802 496l3 0M805 498l0 -103 3 0 0 -2M808 395l3 0M811 496l0 -104M811 496l3 0 0 -1M814 496l3 0M817 498l0 -103 3 0 0 -1M820 395l3 0M823 496l0 -104M823 496l3 0 0 -1M826 496l3 0M829 498l0 -103"/>
<path stroke="#FFA500" d="M829 395l3 0 0 -1M832 395l3 0M835 496l0 -104M835 496l3 0 0 -1M838 496l3 0M841 497l0 -102 3 0 0 -1M844 395l3 0M847 496l0 -104M847 496l3 0 0 -1M850 496l3 0M853 497l0 -102 3 0 0 -1M856 395l3 0M859 496l0 -104M859 496l3 0"/>
<path stroke="#FFA500" d="M862 496l0 -1M862 496l3 0M865 498l0 -103 3 0 0 -2M868 395l3 0M871 496l0 -103M871 496l3 0 0 -1M874 496l3 0M877 497l0 -102 3 0 0 -2M880 395l3 0M883 496l0 -104M883 496l3 0 0 -1M886 496l3 0M889 498l0 -103 3 0 0 -1M892 395l3 0"/>
<path stroke="#FFA500" d="M895 496l0 -104M895 496l3 0 0 -1M898 496l3 0M901 498l0 -103 3 0 0 -1M904 395l3 0M907 496l0 -104M907 496l3 0 0 -1M910 496l3 0M913 498l0 -103 3 0 0 -1M916 395l3 0M919 496l0 -104M919 496l3 0 0 -1M922 496l2 0M924 497l0 -1"/>
<path stroke="#FFA500" d="M924 496l1 0M925 500l0 -105 3 0 0 -2M928 395l3 0M931 496l0 -104M931 496l3 0 0 -1M934 496l3 0M937 497l0 -102 3 0 0 -2M940 395l3 0M943 496l0 -104M943 496l3 0 0 -1M946 496l3 0M949 497l0 -102 3 0 0 -2M952 395l3 0M955 496l0 -104"/>
<path stroke="#FFA500" d="M955 496l3 0 0 -1M958 496l2 0"/>
<path stroke="green" d="M60 39l45 0"/>
<text stroke="none" fill="white" font-size="16" x="115" y="48">
S2+6
</text>
<path stroke="green" d="M60 384l0 -1M60 384l1 0M61 387l0 -104 6 0 0 -1M67 283l6 0M73 384l0 -104M73 384l6 0 0 -1M79 384l6 0M85 385l0 -102 6 0 0 -1M91 283l6 0M97 384l0 -104M97 384l6 0 0 -1M103 384l6 0M109 385l0 -102 6 0 0 -1M115 283l6 0M121 384l0 -104"/>
<path stroke="green" d="M121 384l6 0 0 -1M127 384l6 0M133 385l0 -102 6 0 0 -1M139 283l6 0M145 384l0 -104M145 384l6 0 0 -1M151 384l6 0M157 386l0 -103 6 0 0 -1M163 283l6 0M169 384l0 -104M169 384l6 0 0 -1M175 384l6 0M181 386l0 -103 6 0 0 -1M187 283l6 0"/>
<path stroke="green" d="M193 384l0 -104M193 384l6 0 0 -1M199 384l6 0M205 387l0 -104 6 0 0 -1M211 283l6 0M217 384l0 -104M217 384l6 0 0 -1M223 384l6 0M229 387l0 -104 6 0 0 -2M235 283l6 0M241 384l0 -103M241 384l6 0 0 -1M247 384l5 0M252 385l0 -1"/>
<path stroke="green" d="M252 384l1 0M253 385l0 -102 6 0 0 -2M259 283l6 0M265 384l0 -104M265 384l6 0 0 -1M271 384l6 0M277 385l0 -102 6 0 0 -2M283 283l6 0M289 384l0 -104M289 384l6 0 0 -1M295 384l6 0M301 385l0 -102 6 0 0 -2M307 283l6 0M313 384l0 -104"/>
<path stroke="green" d="M313 384l6 0 0 -1M319 384l6 0M325 386l0 -103 6 0 0 -2M331 283l6 0M337 384l0 -104M337 384l6 0 0 -1M343 384l6 0M349 386l0 -103 6 0 0 -2M355 283l6 0M361 384l0 -104M361 384l6 0 0 -1M367 384l6 0M373 386l0 -103 6 0 0 -2M379 283l6 0"/>
<path stroke="green" d="M385 384l0 -104M385 384l6 0 0 -1M391 384l6 0M397 386l0 -103 6 0 0 -1M403 283l6 0M409 384l0 -104M409 384l6 0 0 -1M415 384l6 0M421 388l0 -105 6 0 0 -2M427 283l6 0M433 384l0 -104M433 384l6 0 0 -1M439 384l6 0M445 385l0 -102"/>
<path stroke="green" d="M445 283l6 0 0 -2M451 283l6 0M457 384l0 -104M457 384l6 0 0 -1M463 384l6 0M469 385l0 -102 6 0 0 -1M475 283l6 0M481 384l0 -104M481 384l6 0 0 -1M487 384l6 0M493 385l0 -102 6 0 0 -1M499 283l6 0M505 384l0 -104M505 384l6 0 0 -1"/>
<path stroke="green" d="M511 384l6 0M517 385l0 -102 6 0 0 -1M523 283l6 0M529 384l0 -104M529 384l6 0 0 -1M535 384l6 0M541 386l0 -103 6 0 0 -1M547 283l6 0M553 384l0 -104M553 384l6 0 0 -1M559 384l6 0M565 386l0 -103 6 0 0 -1M571 283l6 0M577 384l0 -104"/>
<path stroke="green" d="M577 384l6 0 0 -1M583 384l6 0M589 387l0 -104 6 0 0 -1M595 283l6 0M601 384l0 -104M601 384l6 0 0 -1M607 384l6 0M613 387l0 -104 6 0 0 -2M619 283l6 0M625 384l0 -104M625 384l6 0 0 -1M631 384l5 0M636 385l0 -1 1 0M637 385l0 -102"/>
<path stroke="green" d="M637 283l6 0 0 -2M643 283l6 0M649 384l0 -104M649 384l6 0 0 -1M655 384l6 0M661 385l0 -102 6 0 0 -2M667 283l6 0M673 384l0 -104M673 384l6 0 0 -1M679 384l6 0M685 385l0 -102 6 0 0 -2M691 283l6 0M697 384l0 -104M697 384l6 0 0 -1"/>
<path stroke="green" d="M703 384l6 0M709 385l0 -102 6 0 0 -2M715 283l6 0M721 384l0 -104M721 384l6 0 0 -1M727 384l6 0M733 387l0 -104 6 0 0 -2M739 283l6 0M745 384l0 -104M745 384l6 0 0 -1M751 384l6 0M757 387l0 -104 6 0 0 -2M763 283l6 0M769 384l0 -104"/>
<path stroke="green" d="M769 384l6 0 0 -1M775 384l6 0M781 388l0 -105 6 0 0 -1M787 283l6 0M793 384l0 -104M793 384l6 0 0 -1M799 384l6 0M805 386l0 -103 6 0 0 -2M811 283l6 0M817 384l0 -104M817 384l6 0 0 -1M823 384l6 0M829 387l0 -104 6 0 0 -1M835 283l6 0"/>
<path stroke="green" d="M841 384l0 -104M841 384l6 0 0 -1M847 384l6 0M853 385l0 -102 6 0 0 -1M859 283l6 0M865 384l0 -104M865 384l6 0 0 -1M871 384l6 0M877 385l0 -102 6 0 0 -1M883 283l6 0M889 384l0 -104M889 384l6 0 0 -1M895 384l6 0M901 385l0 -102"/>
<path stroke="green" d="M901 283l6 0 0 -1M907 283l6 0M913 384l0 -104M913 384l6 0 0 -1M919 384l6 0M925 386l0 -103 6 0 0 -1M931 283l6 0M937 384l0 -104M937 384l6 0 0 -1M943 384l6 0M949 386l0 -103 6 0 0 -1M955 283l5 0"/>
<path stroke="#FFC0C5" d="M450 55l45 0"/>
<text stroke="none" fill="white" font-size="16" x="505" y="64">
S3+8
</text>
<path stroke="#FFC0C5" d="M60 272l1 0M61 275l0 -28 1 -17 0 -59 1 0M63 172l0 -1M63 172l1 -1 0 -2M64 171l1 0M65 174l0 -3 1 0M66 172l0 -1M66 172l1 -1 0 -2M67 171l1 0M68 174l0 -3 1 0M69 172l0 -1M69 172l1 -1 0 -3M70 171l1 0M71 174l0 -3 1 0M72 172l0 -1"/>
<path stroke="#FFC0C5" d="M72 172l1 -1 0 -2M73 170l1 0M74 175l0 -5M74 171l1 0M75 172l0 -1M75 172l1 -1 0 -4M76 171l1 0M77 175l0 -4 1 0M78 172l0 -1M78 172l1 -1 0 -4M79 171l1 0M80 175l0 -4 1 0M81 172l0 -1M81 172l1 -1 0 -4M82 171l1 0M83 175l0 -4"/>
<path stroke="#FFC0C5" d="M83 171l1 0M84 172l0 -1M84 172l1 -1M85 172l0 -5M85 169l1 4M86 272l0 -99M86 272l11 0 0 -1M97 272l12 0M109 273l0 -31 1 -14 0 -57 1 0M111 172l0 -1M111 172l1 -1 0 -2M112 171l1 0M113 174l0 -3 1 0M114 172l0 -1M114 172l1 -1"/>
<path stroke="#FFC0C5" d="M115 171l0 -2M115 171l1 0M116 174l0 -3 1 0M117 172l0 -1M117 172l1 -1 0 -3M118 171l1 0M119 174l0 -3 1 0M120 172l0 -1M120 172l1 -1 0 -2M121 170l1 0M122 175l0 -5M122 171l1 0M123 172l0 -1M123 172l1 -1 0 -4M124 171l1 0M125 175l0 -4"/>
<path stroke="#FFC0C5" d="M125 171l1 0M126 172l0 -1M126 172l1 -1 0 -4M127 171l1 0M128 175l0 -4 1 0M129 172l0 -1M129 172l1 -1 0 -4M130 171l1 0M131 175l0 -4 1 0M132 172l0 -1M132 172l1 -1M133 173l0 -6M133 173l1 34M134 272l0 -65M134 272l11 0 0 -1"/>
<path stroke="#FFC0C5" d="M145 272l12 0M157 275l0 -26 1 -16 0 -62 1 0M159 172l0 -1M159 172l1 -1 0 -2M160 171l1 0M161 174l0 -3 1 0M162 172l0 -1M162 172l1 -1 0 -2M163 171l1 0M164 174l0 -3 1 0M165 172l0 -1M165 172l1 -1 0 -3M166 171l1 0M167 174l0 -3"/>
<path stroke="#FFC0C5" d="M167 171l1 0M168 172l0 -1M168 172l1 -1 0 -2M169 170l1 0M170 175l0 -5M170 171l1 0M171 172l0 -1M171 172l1 -1 0 -4M172 171l1 0M173 175l0 -4 1 0M174 172l0 -1M174 172l1 -1 0 -4M175 171l1 0M176 175l0 -4 1 0M177 172l0 -1M177 172l1 -1"/>
<path stroke="#FFC0C5" d="M178 171l0 -4M178 171l1 0M179 175l0 -4 1 0M180 172l0 -1M180 172l1 -1M181 172l0 -5M181 169l1 13M182 272l0 -90M182 272l11 0 0 -1M193 272l12 0M205 273l0 -38 1 -16 0 -48 1 0M207 172l0 -1M207 172l1 -1 0 -2M208 171l1 0M209 174l0 -3"/>
<path stroke="#FFC0C5" d="M209 171l1 0M210 172l0 -1M210 172l1 -1 0 -2M211 171l1 0M212 174l0 -3 1 0M213 172l0 -1M213 172l1 -1 0 -3M214 171l1 0M215 174l0 -3 1 0M216 172l0 -1M216 172l1 -1 0 -2M217 170l1 1M218 175l0 -4 1 0M219 172l0 -1M219 172l1 -1"/>
<path stroke="#FFC0C5" d="M220 171l0 -4M220 171l1 0M221 175l0 -4 1 0M222 172l0 -1M222 172l1 -1 0 -4M223 171l1 0M224 175l0 -4 1 0M225 172l0 -1M225 172l1 -1 0 -4M226 171l1 0M227 175l0 -4 1 0M228 172l0 -1M228 172l1 -1M229 172l0 -5M229 170l1 16M230 272l0 -86"/>
<path stroke="#FFC0C5" d="M230 272l11 0 0 -1M241 272l12 0M253 274l0 -35 1 -8 0 -60 1 0M255 172l0 -1M255 172l1 -1 0 -2M256 171l1 0M257 174l0 -3 1 0M258 172l0 -1M258 172l1 -1 0 -2M259 171l1 0M260 174l0 -3 1 0M261 172l0 -1M261 172l1 -1 0 -2M262 171l1 0"/>
<path stroke="#FFC0C5" d="M263 174l0 -3 1 0M264 172l0 -1M264 172l1 -1 0 -2M265 170l1 0M266 176l0 -6M266 171l1 0M267 172l0 -1M267 172l1 -1 0 -4M268 171l1 0M269 175l0 -4 1 0M270 172l0 -1M270 172l1 -1 0 -4M271 171l1 0M272 175l0 -4 1 0M273 172l0 -1"/>
<path stroke="#FFC0C5" d="M273 172l1 -1 0 -4M274 171l1 0M275 175l0 -4 1 0M276 172l0 -1M276 172l1 -1M277 175l0 -8M277 175l1 15M278 272l0 -82M278 272l11 0 0 -1M289 272l12 0M301 274l0 -30 1 -18 0 -55 1 0M303 172l0 -1M303 172l1 -1 0 -2M304 171l1 0"/>
<path stroke="#FFC0C5" d="M305 174l0 -3 1 0M306 172l0 -1M306 172l1 -1 0 -2M307 171l1 0M308 174l0 -3 1 0M309 172l0 -1M309 172l1 -1 0 -2M310 171l1 0M311 174l0 -3 1 0M312 172l0 -1M312 172l1 -1 0 -2M313 170l1 1M314 175l0 -4 1 0M315 172l0 -1M315 172l1 -1"/>
<path stroke="#FFC0C5" d="M316 171l0 -4M316 171l1 0M317 176l0 -5 1 0M318 172l0 -1M318 172l1 -1 0 -4M319 171l1 0M320 175l0 -4 1 0M321 172l0 -1M321 172l1 -1 0 -4M322 171l1 0M323 175l0 -4 1 0M324 172l0 -1M324 172l1 -1M325 184l0 -17M325 184l1 28"/>
<path stroke="#FFC0C5" d="M326 272l0 -60M326 272l11 0 0 -1M337 272l12 0M349 274l0 -25 1 -18 0 -60 1 0M351 172l0 -1M351 172l1 -1 0 -2M352 171l1 0M353 174l0 -3 1 0M354 172l0 -1M354 172l1 -1 0 -2M355 171l1 0M356 174l0 -3 1 0M357 172l0 -1 1 -1M358 171l0 -2"/>
<path stroke="#FFC0C5" d="M358 171l1 0M359 174l0 -3 1 0M360 172l0 -1M360 172l1 -1 0 -2M361 170l1 0M362 175l0 -5M362 171l1 0M363 172l0 -1M363 172l1 -1 0 -4M364 171l1 0M365 175l0 -4 1 0M366 172l0 -1M366 172l1 -1 0 -4M367 171l1 0M368 176l0 -5 1 0"/>
<path stroke="#FFC0C5" d="M369 172l0 -1M369 172l1 -1 0 -4M370 171l1 0M371 175l0 -4 1 0M372 172l0 -1M372 172l1 -1M373 172l0 -5M373 170l1 21M374 272l0 -81M374 272l11 0 0 -1M385 272l12 0M397 273l0 -32 1 -19 0 -51 1 0M399 172l0 -1M399 172l1 -1 0 -2"/>
<path stroke="#FFC0C5" d="M400 171l1 0M401 174l0 -3 1 0M402 172l0 -1M402 172l1 -1 0 -2M403 171l1 0M404 174l0 -3 1 0M405 172l0 -1M405 172l1 -1 0 -2M406 171l1 0M407 174l0 -3 1 0M408 172l0 -1M408 172l1 -1 0 -2M409 170l1 1M410 175l0 -4 1 0M411 172l0 -1"/>
<path stroke="#FFC0C5" d="M411 172l1 -1 0 -4M412 171l1 0M413 175l0 -4 1 0M414 172l0 -1M414 172l1 -1 0 -4M415 171l1 0M416 175l0 -4 1 0M417 172l0 -1M417 172l1 -1 0 -4M418 171l1 0M419 176l0 -5 1 0M420 172l0 -1M420 172l1 -1M421 180l0 -13M421 180l1 33"/>
<path stroke="#FFC0C5" d="M422 272l0 -59M422 272l11 0 0 -1M433 272l11 0M444 273l0 -1 1 0M445 274l0 -31 1 -12 0 -60 1 0M447 172l0 -1M447 172l1 -1 0 -3M448 171l1 0M449 174l0 -3 1 0M450 172l0 -1M450 172l1 -1 0 -3M451 171l1 0M452 174l0 -3 1 0M453 172l0 -1"/>
<path stroke="#FFC0C5" d="M453 172l1 -1 0 -3M454 171l1 0M455 174l0 -3 1 0M456 172l0 -1M456 172l1 -1 0 -3M457 170l1 0M458 175l0 -5M458 171l1 0M459 172l0 -1M459 172l1 -1 0 -4M460 171l1 0M461 175l0 -4 1 0M462 172l0 -1M462 172l1 -1 0 -4M463 171l1 0"/>
<path stroke="#FFC0C5" d="M464 175l0 -4 1 0M465 172l0 -1M465 172l1 -1 0 -4M466 171l1 0M467 176l0 -5 1 0M468 172l0 -1M468 172l1 -1M469 172l0 -5M469 170l1 21M470 272l0 -81M470 272l11 0 0 -1M481 272l12 0M493 273l0 -31 1 -15 0 -56 1 0M495 172l0 -1"/>
<path stroke="#FFC0C5" d="M495 172l1 -1 0 -3M496 171l1 0M497 174l0 -3 1 0M498 172l0 -1M498 172l1 -1 0 -3M499 171l1 0M500 174l0 -3 1 0M501 172l0 -1M501 172l1 -1 0 -3M502 171l1 0M503 174l0 -3 1 0M504 172l0 -1M504 172l1 -1 0 -3M505 170l1 0M506 176l0 -6"/>
<path stroke="#FFC0C5" d="M506 171l1 0M507 172l0 -1M507 172l1 -1 0 -4M508 171l1 0M509 175l0 -4 1 0M510 172l0 -1M510 172l1 -1 0 -4M511 171l1 0M512 176l0 -5 1 0M513 172l0 -1M513 172l1 -1 0 -4M514 171l1 0M515 175l0 -4 1 0M516 172l0 -1M516 172l1 -1"/>
<path stroke="#FFC0C5" d="M517 173l0 -6M517 173l1 37M518 272l0 -62M518 272l11 0 0 -1M529 272l12 0M541 275l0 -26 1 -17 0 -61 1 0M543 172l0 -1M543 172l1 -1 0 -3M544 171l1 0M545 174l0 -3 1 0M546 172l0 -1M546 172l1 -1 0 -3M547 171l1 0M548 174l0 -3"/>
<path stroke="#FFC0C5" d="M548 171l1 0M549 172l0 -1M549 172l1 -1 0 -3M550 171l1 0M551 174l0 -3 1 0M552 172l0 -1M552 172l1 -1 0 -3M553 170l1 0M554 176l0 -6M554 171l1 0M555 172l0 -1M555 172l1 -1 0 -4M556 171l1 0M557 176l0 -5 1 0M558 172l0 -1M558 172l1 -1"/>
<path stroke="#FFC0C5" d="M559 171l0 -4M559 171l1 0M560 176l0 -5 1 0M561 172l0 -1M561 172l1 -1 0 -4M562 171l1 0M563 176l0 -5 1 0M564 172l0 -1M564 172l1 -1M565 172l0 -5M565 169l1 12M566 272l0 -91M566 272l11 0 0 -1M577 272l12 0M589 273l0 -38 1 -17"/>
<path stroke="#FFC0C5" d="M590 218l0 -47 1 0M591 172l0 -1M591 172l1 -1 0 -3M592 171l1 0M593 174l0 -3 1 0M594 172l0 -1M594 172l1 -1 0 -3M595 171l1 0M596 174l0 -3 1 0M597 172l0 -1M597 172l1 -1 0 -3M598 171l1 0M599 174l0 -3 1 0M600 172l0 -1M600 172l1 -1"/>
<path stroke="#FFC0C5" d="M601 171l0 -3M601 170l1 0M602 176l0 -6M602 171l1 0M603 172l0 -1M603 172l1 -1 0 -4M604 171l1 0M605 176l0 -5 1 0M606 172l0 -1M606 172l1 -1 0 -4M607 171l1 0M608 176l0 -5 1 0M609 172l0 -1M609 172l1 -1 0 -4M610 171l1 0M611 176l0 -5"/>
<path stroke="#FFC0C5" d="M611 171l1 0M612 172l0 -1M612 172l1 -1M613 172l0 -5M613 170l1 17M614 272l0 -85M614 272l23 0M637 274l0 -33 1 -5 0 -65 1 0M639 172l0 -1M639 172l1 -1 0 -3M640 171l1 0M641 174l0 -3 1 0M642 172l0 -1M642 172l1 -1 0 -3M643 171l1 0"/>
<path stroke="#FFC0C5" d="M644 174l0 -3 1 0M645 172l0 -1M645 172l1 -1 0 -3M646 171l1 0M647 174l0 -3 1 0M648 172l0 -1M648 172l1 -1 0 -3M649 170l1 0M650 176l0 -6M650 171l1 0M651 172l0 -1M651 172l1 -1 0 -4M652 171l1 0M653 176l0 -5 1 0M654 172l0 -1"/>
<path stroke="#FFC0C5" d="M654 172l1 -1 0 -4M655 171l1 0M656 176l0 -5 1 0M657 172l0 -1M657 172l1 -1 0 -4M658 171l1 0M659 175l0 -4 1 0M660 172l0 -1M660 172l1 -1M661 172l0 -5M661 170l1 10M662 272l0 -92M662 272l11 0 0 -1M673 272l12 0M685 273l0 -41"/>
<path stroke="#FFC0C5" d="M685 232l1 -17 0 -44 1 0M687 172l0 -1 1 -1M688 171l0 -2M688 171l1 0M689 174l0 -3 1 0M690 172l0 -1M690 172l1 -1 0 -3M691 171l1 0M692 174l0 -3 1 0M693 172l0 -1M693 172l1 -1 0 -3M694 171l1 0M695 174l0 -3 1 0M696 172l0 -1"/>
<path stroke="#FFC0C5" d="M696 172l1 -1 0 -3M697 170l1 1M698 176l0 -5 1 0M699 172l0 -1M699 172l1 -1 0 -4M700 171l1 0M701 176l0 -5 1 0M702 172l0 -1M702 172l1 -1 0 -4M703 171l1 0M704 176l0 -5 1 0M705 172l0 -1M705 172l1 -1 0 -4M706 171l1 0M707 176l0 -5"/>
<path stroke="#FFC0C5" d="M707 171l1 0M708 172l0 -1M708 172l1 -1M709 172l0 -5M709 170l1 19M710 272l0 -83M710 272l11 0 0 -1M721 272l12 0M733 275l0 -35 1 -19 0 -50 1 0M735 172l0 -1M735 172l1 -1 0 -3M736 171l1 0M737 174l0 -3 1 0M738 172l0 -1M738 172l1 -1"/>
<path stroke="#FFC0C5" d="M739 171l0 -3M739 171l1 0M740 174l0 -3 1 0M741 172l0 -1M741 172l1 -1 0 -3M742 171l1 0M743 174l0 -3 1 0M744 172l0 -1M744 172l1 -1 0 -3M745 170l1 0M746 176l0 -6M746 171l1 0M747 172l0 -1M747 172l1 -1 0 -4M748 171l1 0M749 176l0 -5"/>
<path stroke="#FFC0C5" d="M749 171l1 0M750 172l0 -1M750 172l1 -1 0 -4M751 171l1 0M752 176l0 -5 1 0M753 172l0 -1M753 172l1 -1 0 -4M754 171l1 0M755 176l0 -5 1 0M756 172l0 -1M756 172l1 -1M757 181l0 -14M757 181l1 36M758 272l0 -55M758 272l11 0 0 -1"/>
<path stroke="#FFC0C5" d="M769 272l12 0M781 274l0 -45 1 -21 0 -37 1 0M783 172l0 -1M783 172l1 -1 0 -3M784 171l1 0M785 174l0 -3 1 0M786 172l0 -1M786 172l1 -1 0 -3M787 171l1 0M788 174l0 -3 1 0M789 172l0 -1M789 172l1 -1 0 -3M790 171l1 0M791 174l0 -3"/>
<path stroke="#FFC0C5" d="M791 171l1 0M792 172l0 -1M792 172l1 -1 0 -3M793 170l1 1M794 176l0 -5 1 0M795 172l0 -1M795 172l1 -1 0 -4M796 171l1 0M797 176l0 -5 1 0M798 172l0 -1M798 172l1 -1 0 -4M799 171l1 0M800 176l0 -5 1 0M801 172l0 -1M801 172l1 -1"/>
<path stroke="#FFC0C5" d="M802 171l0 -4M802 171l1 0M803 176l0 -5 1 0M804 172l0 -1M804 172l1 -1M805 182l0 -15M805 182l1 36M806 272l0 -54M806 272l11 0 0 -1M817 272l12 0M829 275l0 -29 1 -17 0 -58 1 0M831 172l0 -1M831 172l1 -1 0 -2M832 171l1 0M833 174l0 -3"/>
<path stroke="#FFC0C5" d="M833 171l1 0M834 172l0 -1M834 172l1 -1 0 -2M835 171l1 0M836 174l0 -3 1 0M837 172l0 -1M837 172l1 -1 0 -3M838 171l1 0M839 174l0 -3 1 0M840 172l0 -1M840 172l1 -1 0 -2M841 170l1 0M842 175l0 -5M842 171l1 0M843 172l0 -1M843 172l1 -1"/>
<path stroke="#FFC0C5" d="M844 171l0 -4M844 171l1 0M845 175l0 -4 1 0M846 172l0 -1M846 172l1 -1 0 -4M847 171l1 0M848 175l0 -4 1 0M849 172l0 -1M849 172l1 -1 0 -4M850 171l1 0M851 175l0 -4 1 0M852 172l0 -1M852 172l1 -1M853 172l0 -5M853 169l1 3M854 272l0 -100"/>
<path stroke="#FFC0C5" d="M854 272l11 0 0 -1M865 272l12 0M877 274l0 -32 1 -18 0 -53 1 0M879 172l0 -1M879 172l1 -1 0 -2M880 171l1 0M881 174l0 -3 1 0M882 172l0 -1M882 172l1 -1 0 -2M883 171l1 0M884 174l0 -3 1 0M885 172l0 -1M885 172l1 -1 0 -3M886 171l1 0"/>
<path stroke="#FFC0C5" d="M887 174l0 -3 1 0M888 172l0 -1M888 172l1 -1 0 -2M889 170l1 0M890 175l0 -5M890 171l1 0M891 172l0 -1M891 172l1 -1 0 -4M892 171l1 0M893 175l0 -4 1 0M894 172l0 -1M894 172l1 -1 0 -4M895 171l1 0M896 175l0 -4 1 0M897 172l0 -1"/>
<path stroke="#FFC0C5" d="M897 172l1 -1 0 -4M898 171l1 0M899 175l0 -4 1 0M900 172l0 -1M900 172l1 -1M901 172l0 -5M901 172l1 33M902 272l0 -67M902 272l11 0 0 -1M913 272l12 0M925 275l0 -26 1 -16 0 -62 1 0M927 172l0 -1M927 172l1 -1 0 -2M928 171l1 0"/>
<path stroke="#FFC0C5" d="M929 174l0 -3 1 0M930 172l0 -1M930 172l1 -1 0 -2M931 171l1 0M932 174l0 -3 1 0M933 172l0 -1M933 172l1 -1 0 -3M934 171l1 0M935 174l0 -3 1 0M936 172l0 -1M936 172l1 -1 0 -2M937 170l1 0M938 175l0 -5M938 171l1 0M939 172l0 -1"/>
<path stroke="#FFC0C5" d="M939 172l1 -1 0 -4M940 171l1 0M941 175l0 -4 1 0M942 172l0 -1M942 172l1 -1 0 -4M943 171l1 0M944 175l0 -4 1 0M945 172l0 -1M945 172l1 -1 0 -4M946 171l1 0M947 175l0 -4 1 0M948 172l0 -1M948 172l1 -1M949 172l0 -5M949 169l1 13"/>
<path stroke="#FFC0C5" d="M950 272l0 -90M950 272l10 0"/>
<path stroke="#A52A2A" d="M60 55l45 0"/>
<text stroke="none" fill="white" font-size="16" x="115" y="64">
pwm+10
</text>
<path stroke="#A52A2A" d="M60 59l50 0M110 163l0 -109M110 160l3 0M113 162l0 -105 1 4 0 -3M114 59l44 0M158 163l0 -109M158 160l6 0M164 162l0 -105 1 4 0 -3M165 59l41 0M206 163l0 -110M206 160l9 0M215 165l0 -106 39 0M254 162l0 -109M254 160l12 0M266 162l0 -105"/>
<path stroke="#A52A2A" d="M266 57l1 4 0 -3M267 59l35 0M302 163l0 -109M302 160l15 0M317 164l0 -105 1 1 0 -1 32 0M350 163l0 -109M350 160l18 0M368 162l0 -105 1 4 0 -3M369 59l29 0M398 161l0 -108M398 160l21 0M419 162l0 -104 1 2 0 -2M420 59l26 0M446 162l0 -109"/>
<path stroke="#A52A2A" d="M446 160l24 0M470 162l0 -105 1 3 0 -2M471 59l23 0M494 160l0 -107M494 160l27 0M521 165l0 -106 21 0M542 161l0 -108M542 160l30 0M572 162l0 -105 1 4 0 -3M573 59l17 0M590 161l0 -108M590 160l33 0M623 162l0 -105 1 4 0 -3M624 59l14 0"/>
<path stroke="#A52A2A" d="M638 162l0 -109M638 160l36 0M674 162l0 -105 1 4 0 -3M675 59l11 0M686 161l0 -108M686 160l39 0M725 162l0 -105 1 4 0 -3M726 59l8 0M734 163l0 -109M734 160l42 0M776 162l0 -105 1 4 0 -3M777 59l4 0M781 164l0 -111M781 160l1 0"/>
<path stroke="#A52A2A" d="M782 162l0 -103 45 0M827 161l0 -107M827 160l51 0M878 165l0 -106 3 0M881 160l0 -107M881 160l45 0M926 171l0 -112 6 0M932 162l0 -108M932 161l1 -2M933 161l0 -2M933 160l27 0"/>
</svg>
